# xmcd
#
# Track frame offsets:
#	150
#	14675
#	25767
#	35135
#	49175
#	61822
#	75532
#	85742
#
# Disc length: 1319 seconds
#
# Revision: 0
# Processed by: cddbd v1.5.2PL0 Copyright (c) Steve Scherf et al.
# Submitted via: dBpowerAMP V4.0
#
DISCID=5c052508
DTITLE=Various Artist - Country Tears
DYEAR=1900
DGENRE=Country
TTITLE0=Carl Smith - I Just Loved Her For The Last Time Again
TTITLE1=Narvel Felts - Everything I Taught Her Was Bad
TTITLE2=Mary Kay James - Before The Feeling Slips Away
TTITLE3=Claude King - I Wonder Who She Missed Me With Today
TTITLE4=Wanda Jackson - It Don't Fit Anymore
TTITLE5=Whitey Shaffer - I Wish I'd Never Borrowed Anybody's Angel
TTITLE6=Mike Lunsford - If She Knock On My Door One More Time
TTITLE7=Sherri Jerrico - Everything You Touch Turns To Hurt
EXTD=
EXTT0=
EXTT1=
EXTT2=
EXTT3=
EXTT4=
EXTT5=
EXTT6=
EXTT7=
PLAYORDER=
